<svg width="64" height="64" viewBox="0 0 64 64" fill="none" xmlns="http://www.w3.org/2000/svg">
  <path
    d="M32 6L50 12V30C50 42.1503 42.3299 53.483 32 58C21.6701 53.483 14 42.1503 14 30V12L32 6Z"
    fill="#2563EB"
  />
  <path
    d="M32 14.5L44.5 19V30.5C44.5 39.6923 38.9558 48.4697 32 51.5C25.0442 48.4697 19.5 39.6923 19.5 30.5V19L32 14.5Z"
    fill="#3B82F6"
    opacity="0.5"
  />
  <path
    d="M32 42C32 42 22 36.6957 22 30C22 26.6863 24.6863 24 28 24C30.2091 24 31.9997 25.2544 32 27C32.0003 25.2544 33.7909 24 36 24C39.3137 24 42 26.6863 42 30C42 36.6957 32 42 32 42Z"
    fill="#EF4444"
  />
</svg>
